<svg width="143" height="21" viewBox="0 0 143 21" fill="none" xmlns="http://www.w3.org/2000/svg">
<path d="M4.50977 2.10547C4.50977 2.39714 4.45508 2.67057 4.3457 2.92578C4.23633 3.17188 4.08594 3.39062 3.89453 3.58203C3.70312 3.77344 3.47982 3.92383 3.22461 4.0332C2.9694 4.14258 2.70052 4.19727 2.41797 4.19727C2.1263 4.19727 1.85286 4.14258 1.59766 4.0332C1.34245 3.92383 1.11914 3.77344 0.927734 3.58203C0.736328 3.39062 0.585938 3.17188 0.476562 2.92578C0.367188 2.67057 0.3125 2.39714 0.3125 2.10547C0.3125 1.82292 0.367188 1.55404 0.476562 1.29883C0.585938 1.04362 0.736328 0.820312 0.927734 0.628906C1.11914 0.4375 1.34245 0.287109 1.59766 0.177734C1.85286 0.0592448 2.1263 0 2.41797 0C2.70052 0 2.9694 0.0592448 3.22461 0.177734C3.47982 0.287109 3.70312 0.4375 3.89453 0.628906C4.08594 0.820312 4.23633 1.04362 4.3457 1.29883C4.45508 1.55404 4.50977 1.82292 4.50977 2.10547ZM3.8125 21H1.00977V5.60547H3.8125V21ZM10.6484 21H7.8457V5.60547H18.3457C19.403 5.60547 20.3965 5.81055 21.3262 6.2207C22.2559 6.62174 23.0671 7.17318 23.7598 7.875C24.4525 8.56771 24.9993 9.38346 25.4004 10.3223C25.8014 11.252 26.002 12.2454 26.002 13.3027V21H23.1992V13.3027C23.1992 12.6283 23.0716 11.9948 22.8164 11.4023C22.5612 10.8099 22.2148 10.2949 21.7773 9.85742C21.3398 9.41081 20.8249 9.0599 20.2324 8.80469C19.6491 8.54036 19.0202 8.40365 18.3457 8.39453H10.6484V21ZM45.1836 2.80273H37.4316C36.7572 2.81185 36.1237 2.94857 35.5312 3.21289C34.9479 3.4681 34.4375 3.81901 34 4.26562C33.5625 4.70312 33.2161 5.2181 32.9609 5.81055C32.7057 6.40299 32.5781 7.0319 32.5781 7.69727V21H29.7754V7C29.7754 6.01562 29.985 5.09961 30.4043 4.25195C30.8327 3.39518 31.3978 2.6569 32.0996 2.03711C32.8105 1.4082 33.6263 0.916016 34.5469 0.560547C35.4674 0.195964 36.429 0.00911458 37.4316 0H45.1836V2.80273ZM45.1836 9.80273H33.9863V7H45.1836V9.80273ZM66.2793 13.3027C66.2793 14.36 66.0788 15.3535 65.6777 16.2832C65.2767 17.2129 64.7298 18.0286 64.0371 18.7305C63.3535 19.4232 62.5469 19.9746 61.6172 20.3848C60.6875 20.7858 59.694 20.9909 58.6367 21H54.3301C53.2728 20.9909 52.2793 20.7858 51.3496 20.3848C50.4199 19.9746 49.6087 19.4232 48.916 18.7305C48.2324 18.0286 47.6901 17.2129 47.2891 16.2832C46.888 15.3535 46.6875 14.36 46.6875 13.3027C46.6875 12.2454 46.888 11.252 47.2891 10.3223C47.6901 9.38346 48.2324 8.56771 48.916 7.875C49.6087 7.17318 50.4199 6.62174 51.3496 6.2207C52.2793 5.81055 53.2728 5.60547 54.3301 5.60547H58.6367C59.3385 5.60547 60.0176 5.69661 60.6738 5.87891C61.3301 6.0612 61.9408 6.32096 62.5059 6.6582C63.071 6.99544 63.5859 7.40104 64.0508 7.875C64.5156 8.33984 64.9121 8.85938 65.2402 9.43359C65.5684 9.9987 65.8236 10.6094 66.0059 11.2656C66.1882 11.9219 66.2793 12.6009 66.2793 13.3027ZM63.4902 13.3027C63.4902 12.6283 63.3626 11.9948 63.1074 11.4023C62.8522 10.8099 62.5059 10.2949 62.0684 9.85742C61.6309 9.41081 61.1159 9.0599 60.5234 8.80469C59.9401 8.54036 59.3112 8.40365 58.6367 8.39453H54.3301C53.6556 8.40365 53.0221 8.54036 52.4297 8.80469C51.8464 9.0599 51.3359 9.41081 50.8984 9.85742C50.4609 10.2949 50.1146 10.8099 49.8594 11.4023C49.6133 11.9948 49.4902 12.6283 49.4902 13.3027C49.4902 13.9772 49.6133 14.6107 49.8594 15.2031C50.1146 15.7956 50.4609 16.3151 50.8984 16.7617C51.3359 17.1992 51.8464 17.5501 52.4297 17.8145C53.0221 18.0697 53.6556 18.1973 54.3301 18.1973H58.6367C59.3112 18.1973 59.9401 18.0697 60.5234 17.8145C61.1159 17.5501 61.6309 17.1992 62.0684 16.7617C62.5059 16.3151 62.8522 15.7956 63.1074 15.2031C63.3626 14.6107 63.4902 13.9772 63.4902 13.3027ZM72.1445 21H69.3418V5.60547H79.8418C80.8991 5.60547 81.8926 5.81055 82.8223 6.2207C83.752 6.62174 84.5632 7.17318 85.2559 7.875C85.9486 8.56771 86.4954 9.38346 86.8965 10.3223C87.2975 11.252 87.498 12.2454 87.498 13.3027V21H84.6953V13.3027C84.6953 12.6283 84.5677 11.9948 84.3125 11.4023C84.0573 10.8099 83.7109 10.2949 83.2734 9.85742C82.8359 9.41081 82.321 9.0599 81.7285 8.80469C81.1452 8.54036 80.5163 8.40365 79.8418 8.39453H72.1445V21ZM94.7715 2.10547C94.7715 2.39714 94.7168 2.67057 94.6074 2.92578C94.498 3.17188 94.3477 3.39062 94.1562 3.58203C93.9648 3.77344 93.7415 3.92383 93.4863 4.0332C93.2311 4.14258 92.9622 4.19727 92.6797 4.19727C92.388 4.19727 92.1146 4.14258 91.8594 4.0332C91.6042 3.92383 91.3809 3.77344 91.1895 3.58203C90.998 3.39062 90.8477 3.17188 90.7383 2.92578C90.6289 2.67057 90.5742 2.39714 90.5742 2.10547C90.5742 1.82292 90.6289 1.55404 90.7383 1.29883C90.8477 1.04362 90.998 0.820312 91.1895 0.628906C91.3809 0.4375 91.6042 0.287109 91.8594 0.177734C92.1146 0.0592448 92.388 0 92.6797 0C92.9622 0 93.2311 0.0592448 93.4863 0.177734C93.7415 0.287109 93.9648 0.4375 94.1562 0.628906C94.3477 0.820312 94.498 1.04362 94.6074 1.29883C94.7168 1.55404 94.7715 1.82292 94.7715 2.10547ZM94.0742 21H91.2715V5.60547H94.0742V21ZM100.91 21H98.1074V5.60547H112.873C113.93 5.60547 114.924 5.81055 115.854 6.2207C116.783 6.62174 117.59 7.17318 118.273 7.875C118.966 8.56771 119.513 9.38346 119.914 10.3223C120.315 11.252 120.516 12.2454 120.516 13.3027V21H117.713V13.3027C117.713 12.6283 117.585 11.9948 117.33 11.4023C117.075 10.8099 116.729 10.2949 116.291 9.85742C115.854 9.41081 115.339 9.0599 114.746 8.80469C114.163 8.54036 113.538 8.40365 112.873 8.39453H110.713V21H107.91V8.39453H100.91V21ZM142.227 10.5C142.227 11.1836 142.099 11.8216 141.844 12.4141C141.589 13.0065 141.238 13.526 140.791 13.9727C140.354 14.4102 139.834 14.7565 139.232 15.0117C138.64 15.2669 138.007 15.3945 137.332 15.3945H126.6C126.8 15.8047 127.051 16.1829 127.352 16.5293C127.652 16.8757 127.99 17.1719 128.363 17.418C128.737 17.6641 129.143 17.8555 129.58 17.9922C130.027 18.1289 130.492 18.1973 130.975 18.1973H140.135V21H130.975C129.917 20.9909 128.924 20.7858 127.994 20.3848C127.064 19.9746 126.253 19.4232 125.561 18.7305C124.877 18.0286 124.335 17.2129 123.934 16.2832C123.533 15.3535 123.332 14.36 123.332 13.3027C123.332 12.2454 123.533 11.252 123.934 10.3223C124.335 9.39258 124.877 8.58138 125.561 7.88867C126.253 7.18685 127.064 6.63542 127.994 6.23438C128.924 5.82422 129.917 5.61458 130.975 5.60547H137.332C138.007 5.60547 138.64 5.73307 139.232 5.98828C139.834 6.24349 140.354 6.5944 140.791 7.04102C141.238 7.47852 141.589 7.99349 141.844 8.58594C142.099 9.17839 142.227 9.81641 142.227 10.5ZM137.332 12.6055C137.615 12.6055 137.883 12.5508 138.139 12.4414C138.394 12.332 138.617 12.1816 138.809 11.9902C139 11.7988 139.15 11.5755 139.26 11.3203C139.369 11.0651 139.424 10.7917 139.424 10.5C139.424 10.2174 139.369 9.94857 139.26 9.69336C139.15 9.43815 139 9.21484 138.809 9.02344C138.617 8.83203 138.394 8.68164 138.139 8.57227C137.883 8.45378 137.615 8.39453 137.332 8.39453H130.975C130.355 8.39453 129.771 8.50391 129.225 8.72266C128.687 8.94141 128.204 9.24219 127.775 9.625C127.356 9.9987 127.005 10.4453 126.723 10.9648C126.449 11.4753 126.271 12.0221 126.189 12.6055H137.332Z" fill="#4489b0"/>
</svg>
